<svg xmlns="http://www.w3.org/2000/svg" viewBox="0 0 64 64" fill="none">
  <defs>
    <linearGradient id="faviconGradient" x1="12" y1="8" x2="52" y2="56" gradientUnits="userSpaceOnUse">
      <stop offset="0%" stop-color="#8b5cf6" />
      <stop offset="100%" stop-color="#6366f1" />
    </linearGradient>
  </defs>
  <rect width="64" height="64" rx="18" fill="#0b1020" />
  <rect x="6" y="6" width="52" height="52" rx="14" fill="url(#faviconGradient)" />
  <path d="M22 22.5c2.3-2 5.4-3 9.3-3 6.2 0 10 2.7 10 7.2 0 2.6-1.5 4.4-4.3 5.5 3.5.9 5.5 3.2 5.5 6.6 0 5.1-4.2 8.2-11.5 8.2-4 0-7.5-.9-10.3-2.8l2.2-4.8c2.3 1.5 4.8 2.3 7.6 2.3 3.2 0 5.3-1.2 5.3-3.4 0-2.2-1.9-3.3-5.8-3.3h-3.1v-4.8h2.8c3.5 0 5.2-1 5.2-3 0-1.8-1.5-2.9-4.3-2.9-2.4 0-4.7.8-6.8 2.2l-1.8-4.9Z" fill="#ffffff" />
</svg>
